<svg width="86.802612" height="31.000000" viewBox="0 0 86.8026 31" fill="none" xmlns="http://www.w3.org/2000/svg" xmlns:xlink="http://www.w3.org/1999/xlink">
	<desc>
			Created with Pixso.
	</desc>
	<defs/>
	<path d="M15.8289 0L10.3163 0L0 31L5.59131 31L8.1507 23.2717L17.9158 23.2717L20.5145 31L26.1058 31L15.8289 0ZM39.0161 11.4395L32.086 0L26.1403 0L35.8267 15.7183L26.4553 31L32.401 31L39.0161 19.9971L45.5917 31L51.498 31L42.1267 15.7183L51.813 0L45.9067 0L39.0161 11.4395ZM13.0726 6.24365L16.9314 19.0366L9.05634 19.0366L13.0726 6.24365Z" fill="#FFFFFF" fill-opacity="1.000000" fill-rule="evenodd"/>
	<path d="M54.6277 0L54.6277 31L60.0615 31L60.0615 0L54.6277 0ZM77.8644 5.2832L86.8026 5.2832L86.8026 0L63.5318 0L63.5318 5.2832L72.47 5.2832L72.47 31L77.8644 31L77.8644 5.2832Z" fill="#EC7979" fill-opacity="1.000000" fill-rule="evenodd"/>
</svg>
